<svg xmlns="http://www.w3.org/2000/svg" xmlns:xlink="http://www.w3.org/1999/xlink" width="500" zoomAndPan="magnify" viewBox="0 0 375 374.999991" height="500" preserveAspectRatio="xMidYMid meet" version="1.0"><defs><g/></defs><g fill="#6d6e71" fill-opacity="1"><g transform="translate(42.92932, 184.382726)"><g><path d="M 10.4375 -12.484375 C 10.351562 -11.648438 10.3125 -10.894531 10.3125 -10.21875 C 10.3125 -9.632812 10.328125 -9.15625 10.359375 -8.78125 L 9.953125 -8.78125 C 9.859375 -9.6875 9.738281 -10.359375 9.59375 -10.796875 C 9.457031 -11.234375 9.210938 -11.554688 8.859375 -11.765625 C 8.515625 -11.972656 7.976562 -12.078125 7.25 -12.078125 L 6.296875 -12.078125 L 6.296875 -2.046875 C 6.296875 -1.546875 6.34375 -1.1875 6.4375 -0.96875 C 6.53125 -0.75 6.691406 -0.597656 6.921875 -0.515625 C 7.160156 -0.429688 7.546875 -0.378906 8.078125 -0.359375 L 8.078125 0 C 7.460938 -0.03125 6.597656 -0.046875 5.484375 -0.046875 C 4.304688 -0.046875 3.4375 -0.03125 2.875 0 L 2.875 -0.359375 C 3.40625 -0.378906 3.785156 -0.429688 4.015625 -0.515625 C 4.253906 -0.597656 4.421875 -0.75 4.515625 -0.96875 C 4.609375 -1.1875 4.65625 -1.546875 4.65625 -2.046875 L 4.65625 -12.078125 L 3.703125 -12.078125 C 2.972656 -12.078125 2.429688 -11.972656 2.078125 -11.765625 C 1.722656 -11.554688 1.472656 -11.234375 1.328125 -10.796875 C 1.191406 -10.359375 1.078125 -9.6875 0.984375 -8.78125 L 0.578125 -8.78125 C 0.617188 -9.15625 0.640625 -9.632812 0.640625 -10.21875 C 0.640625 -10.894531 0.597656 -11.648438 0.515625 -12.484375 C 1.484375 -12.441406 3.140625 -12.421875 5.484375 -12.421875 C 7.804688 -12.421875 9.457031 -12.441406 10.4375 -12.484375 Z M 10.4375 -12.484375 "/></g></g></g><g fill="#6d6e71" fill-opacity="1"><g transform="translate(55.629282, 184.382726)"><g><path d="M 12.609375 -12.125 C 12.179688 -12.101562 11.867188 -12.054688 11.671875 -11.984375 C 11.484375 -11.910156 11.351562 -11.773438 11.28125 -11.578125 C 11.207031 -11.378906 11.171875 -11.054688 11.171875 -10.609375 L 11.171875 -1.875 C 11.171875 -1.425781 11.207031 -1.097656 11.28125 -0.890625 C 11.351562 -0.691406 11.484375 -0.554688 11.671875 -0.484375 C 11.867188 -0.421875 12.179688 -0.378906 12.609375 -0.359375 L 12.609375 0 C 12.109375 -0.03125 11.351562 -0.046875 10.34375 -0.046875 C 9.394531 -0.046875 8.648438 -0.03125 8.109375 0 L 8.109375 -0.359375 C 8.523438 -0.378906 8.832031 -0.421875 9.03125 -0.484375 C 9.226562 -0.554688 9.359375 -0.691406 9.421875 -0.890625 C 9.492188 -1.097656 9.53125 -1.425781 9.53125 -1.875 L 9.53125 -6.09375 L 3.8125 -6.09375 L 3.8125 -1.875 C 3.8125 -1.425781 3.84375 -1.097656 3.90625 -0.890625 C 3.976562 -0.691406 4.109375 -0.554688 4.296875 -0.484375 C 4.492188 -0.421875 4.804688 -0.378906 5.234375 -0.359375 L 5.234375 0 C 4.691406 -0.03125 3.945312 -0.046875 3 -0.046875 C 1.988281 -0.046875 1.234375 -0.03125 0.734375 0 L 0.734375 -0.359375 C 1.160156 -0.378906 1.46875 -0.421875 1.65625 -0.484375 C 1.851562 -0.554688 1.988281 -0.691406 2.0625 -0.890625 C 2.132812 -1.097656 2.171875 -1.425781 2.171875 -1.875 L 2.171875 -10.609375 C 2.171875 -11.054688 2.132812 -11.378906 2.0625 -11.578125 C 1.988281 -11.773438 1.851562 -11.910156 1.65625 -11.984375 C 1.46875 -12.054688 1.160156 -12.101562 0.734375 -12.125 L 0.734375 -12.484375 C 1.234375 -12.441406 1.988281 -12.421875 3 -12.421875 C 3.9375 -12.421875 4.679688 -12.441406 5.234375 -12.484375 L 5.234375 -12.125 C 4.804688 -12.101562 4.492188 -12.054688 4.296875 -11.984375 C 4.109375 -11.910156 3.976562 -11.773438 3.90625 -11.578125 C 3.84375 -11.378906 3.8125 -11.054688 3.8125 -10.609375 L 3.8125 -6.453125 L 9.53125 -6.453125 L 9.53125 -10.609375 C 9.53125 -11.054688 9.492188 -11.378906 9.421875 -11.578125 C 9.359375 -11.773438 9.226562 -11.910156 9.03125 -11.984375 C 8.832031 -12.054688 8.523438 -12.101562 8.109375 -12.125 L 8.109375 -12.484375 C 8.648438 -12.441406 9.394531 -12.421875 10.34375 -12.421875 C 11.351562 -12.421875 12.109375 -12.441406 12.609375 -12.484375 Z M 12.609375 -12.125 "/></g></g></g><g fill="#6d6e71" fill-opacity="1"><g transform="translate(70.724652, 184.382726)"><g><path d="M 9.765625 -2.25 C 9.765625 -1.582031 9.804688 -0.832031 9.890625 0 C 9.085938 -0.03125 7.738281 -0.046875 5.84375 -0.046875 C 3.59375 -0.046875 1.890625 -0.03125 0.734375 0 L 0.734375 -0.359375 C 1.160156 -0.378906 1.46875 -0.421875 1.65625 -0.484375 C 1.851562 -0.554688 1.988281 -0.691406 2.0625 -0.890625 C 2.132812 -1.097656 2.171875 -1.425781 2.171875 -1.875 L 2.171875 -10.609375 C 2.171875 -11.054688 2.132812 -11.378906 2.0625 -11.578125 C 1.988281 -11.773438 1.851562 -11.910156 1.65625 -11.984375 C 1.46875 -12.054688 1.160156 -12.101562 0.734375 -12.125 L 0.734375 -12.484375 C 1.890625 -12.441406 3.59375 -12.421875 5.84375 -12.421875 C 7.570312 -12.421875 8.800781 -12.441406 9.53125 -12.484375 C 9.445312 -11.703125 9.40625 -11.007812 9.40625 -10.40625 C 9.40625 -9.945312 9.425781 -9.582031 9.46875 -9.3125 L 9.0625 -9.3125 C 8.976562 -10.070312 8.867188 -10.632812 8.734375 -11 C 8.609375 -11.375 8.390625 -11.644531 8.078125 -11.8125 C 7.773438 -11.988281 7.316406 -12.078125 6.703125 -12.078125 L 5.234375 -12.078125 C 4.804688 -12.078125 4.492188 -12.039062 4.296875 -11.96875 C 4.109375 -11.90625 3.976562 -11.773438 3.90625 -11.578125 C 3.84375 -11.378906 3.8125 -11.054688 3.8125 -10.609375 L 3.8125 -6.453125 L 4.96875 -6.453125 C 5.382812 -6.453125 5.703125 -6.546875 5.921875 -6.734375 C 6.140625 -6.929688 6.285156 -7.160156 6.359375 -7.421875 C 6.441406 -7.691406 6.507812 -8.023438 6.5625 -8.421875 L 6.609375 -8.78125 L 7.015625 -8.78125 C 6.984375 -8.28125 6.96875 -7.726562 6.96875 -7.125 L 6.96875 -6.28125 C 6.96875 -5.675781 7 -4.835938 7.0625 -3.765625 L 6.65625 -3.765625 C 6.644531 -3.847656 6.609375 -4.132812 6.546875 -4.625 C 6.492188 -5.113281 6.332031 -5.476562 6.0625 -5.71875 C 5.800781 -5.96875 5.4375 -6.09375 4.96875 -6.09375 L 3.8125 -6.09375 L 3.8125 -1.875 C 3.8125 -1.425781 3.84375 -1.097656 3.90625 -0.890625 C 3.976562 -0.691406 4.109375 -0.5625 4.296875 -0.5 C 4.492188 -0.4375 4.804688 -0.40625 5.234375 -0.40625 L 6.515625 -0.40625 C 7.242188 -0.40625 7.800781 -0.5 8.1875 -0.6875 C 8.570312 -0.882812 8.847656 -1.195312 9.015625 -1.625 C 9.191406 -2.0625 9.320312 -2.695312 9.40625 -3.53125 L 9.8125 -3.53125 C 9.78125 -3.207031 9.765625 -2.78125 9.765625 -2.25 Z M 9.765625 -2.25 "/></g></g></g><g fill="#6d6e71" fill-opacity="1"><g transform="translate(83.213253, 184.382726)"><g/></g></g><g fill="#6d6e71" fill-opacity="1"><g transform="translate(89.361036, 184.382726)"><g><path d="M 6.53125 -12.71875 C 7.238281 -12.71875 7.835938 -12.617188 8.328125 -12.421875 C 8.828125 -12.222656 9.3125 -11.941406 9.78125 -11.578125 C 9.90625 -11.472656 10.015625 -11.421875 10.109375 -11.421875 C 10.347656 -11.421875 10.503906 -11.773438 10.578125 -12.484375 L 10.984375 -12.484375 C 10.929688 -11.710938 10.90625 -10.359375 10.90625 -8.421875 L 10.5 -8.421875 C 10.375 -9.191406 10.257812 -9.742188 10.15625 -10.078125 C 10.050781 -10.410156 9.875 -10.726562 9.625 -11.03125 C 9.269531 -11.488281 8.816406 -11.832031 8.265625 -12.0625 C 7.722656 -12.289062 7.132812 -12.40625 6.5 -12.40625 C 5.738281 -12.40625 5.070312 -12.148438 4.5 -11.640625 C 3.925781 -11.140625 3.484375 -10.421875 3.171875 -9.484375 C 2.859375 -8.554688 2.703125 -7.460938 2.703125 -6.203125 C 2.703125 -4.921875 2.867188 -3.820312 3.203125 -2.90625 C 3.546875 -1.988281 4.019531 -1.289062 4.625 -0.8125 C 5.226562 -0.34375 5.914062 -0.109375 6.6875 -0.109375 C 7.269531 -0.109375 7.835938 -0.21875 8.390625 -0.4375 C 8.941406 -0.664062 9.375 -1 9.6875 -1.4375 C 9.925781 -1.769531 10.097656 -2.125 10.203125 -2.5 C 10.304688 -2.875 10.40625 -3.453125 10.5 -4.234375 L 10.90625 -4.234375 C 10.90625 -2.210938 10.929688 -0.800781 10.984375 0 L 10.578125 0 C 10.535156 -0.375 10.484375 -0.640625 10.421875 -0.796875 C 10.359375 -0.960938 10.269531 -1.046875 10.15625 -1.046875 C 10.0625 -1.046875 9.9375 -1 9.78125 -0.90625 C 9.25 -0.519531 8.742188 -0.226562 8.265625 -0.03125 C 7.785156 0.15625 7.203125 0.25 6.515625 0.25 C 5.398438 0.25 4.421875 0 3.578125 -0.5 C 2.742188 -1.007812 2.09375 -1.742188 1.625 -2.703125 C 1.164062 -3.660156 0.9375 -4.804688 0.9375 -6.140625 C 0.9375 -7.429688 1.171875 -8.570312 1.640625 -9.5625 C 2.117188 -10.5625 2.785156 -11.335938 3.640625 -11.890625 C 4.492188 -12.441406 5.457031 -12.71875 6.53125 -12.71875 Z M 6.53125 -12.71875 "/></g></g></g><g fill="#6d6e71" fill-opacity="1"><g transform="translate(103.241088, 184.382726)"><g><path d="M 6.53125 -12.71875 C 7.65625 -12.71875 8.632812 -12.460938 9.46875 -11.953125 C 10.3125 -11.453125 10.960938 -10.722656 11.421875 -9.765625 C 11.890625 -8.816406 12.125 -7.675781 12.125 -6.34375 C 12.125 -5.050781 11.882812 -3.90625 11.40625 -2.90625 C 10.9375 -1.90625 10.273438 -1.128906 9.421875 -0.578125 C 8.566406 -0.0234375 7.597656 0.25 6.515625 0.25 C 5.398438 0.25 4.421875 0 3.578125 -0.5 C 2.742188 -1.007812 2.09375 -1.742188 1.625 -2.703125 C 1.164062 -3.660156 0.9375 -4.804688 0.9375 -6.140625 C 0.9375 -7.429688 1.171875 -8.570312 1.640625 -9.5625 C 2.117188 -10.5625 2.785156 -11.335938 3.640625 -11.890625 C 4.492188 -12.441406 5.457031 -12.71875 6.53125 -12.71875 Z M 6.46875 -12.40625 C 5.71875 -12.40625 5.054688 -12.144531 4.484375 -11.625 C 3.910156 -11.101562 3.46875 -10.367188 3.15625 -9.421875 C 2.851562 -8.484375 2.703125 -7.410156 2.703125 -6.203125 C 2.703125 -4.984375 2.875 -3.910156 3.21875 -2.984375 C 3.5625 -2.054688 4.023438 -1.335938 4.609375 -0.828125 C 5.203125 -0.328125 5.863281 -0.078125 6.59375 -0.078125 C 7.34375 -0.078125 8 -0.335938 8.5625 -0.859375 C 9.132812 -1.378906 9.578125 -2.109375 9.890625 -3.046875 C 10.203125 -3.984375 10.359375 -5.0625 10.359375 -6.28125 C 10.359375 -7.5 10.1875 -8.570312 9.84375 -9.5 C 9.5 -10.425781 9.03125 -11.140625 8.4375 -11.640625 C 7.851562 -12.148438 7.195312 -12.40625 6.46875 -12.40625 Z M 6.46875 -12.40625 "/></g></g></g><g fill="#6d6e71" fill-opacity="1"><g transform="translate(118.054645, 184.382726)"><g><path d="M 5.234375 -12.125 C 4.804688 -12.101562 4.492188 -12.054688 4.296875 -11.984375 C 4.109375 -11.910156 3.976562 -11.773438 3.90625 -11.578125 C 3.84375 -11.378906 3.8125 -11.054688 3.8125 -10.609375 L 3.8125 -1.875 C 3.8125 -1.425781 3.84375 -1.097656 3.90625 -0.890625 C 3.976562 -0.691406 4.109375 -0.5625 4.296875 -0.5 C 4.492188 -0.4375 4.804688 -0.40625 5.234375 -0.40625 L 6.515625 -0.40625 C 7.242188 -0.40625 7.800781 -0.503906 8.1875 -0.703125 C 8.570312 -0.910156 8.847656 -1.242188 9.015625 -1.703125 C 9.191406 -2.160156 9.320312 -2.828125 9.40625 -3.703125 L 9.8125 -3.703125 C 9.78125 -3.335938 9.765625 -2.851562 9.765625 -2.25 C 9.765625 -1.582031 9.804688 -0.832031 9.890625 0 C 9.085938 -0.03125 7.738281 -0.046875 5.84375 -0.046875 C 3.59375 -0.046875 1.890625 -0.03125 0.734375 0 L 0.734375 -0.359375 C 1.160156 -0.378906 1.46875 -0.421875 1.65625 -0.484375 C 1.851562 -0.554688 1.988281 -0.691406 2.0625 -0.890625 C 2.132812 -1.097656 2.171875 -1.425781 2.171875 -1.875 L 2.171875 -10.609375 C 2.171875 -11.054688 2.132812 -11.378906 2.0625 -11.578125 C 1.988281 -11.773438 1.851562 -11.910156 1.65625 -11.984375 C 1.46875 -12.054688 1.160156 -12.101562 0.734375 -12.125 L 0.734375 -12.484375 C 1.234375 -12.441406 1.988281 -12.421875 3 -12.421875 C 3.9375 -12.421875 4.679688 -12.441406 5.234375 -12.484375 Z M 5.234375 -12.125 "/></g></g></g><g fill="#6d6e71" fill-opacity="1"><g transform="translate(130.17336, 184.382726)"><g><path d="M 5.234375 -12.125 C 4.804688 -12.101562 4.492188 -12.054688 4.296875 -11.984375 C 4.109375 -11.910156 3.976562 -11.773438 3.90625 -11.578125 C 3.84375 -11.378906 3.8125 -11.054688 3.8125 -10.609375 L 3.8125 -1.875 C 3.8125 -1.425781 3.84375 -1.097656 3.90625 -0.890625 C 3.976562 -0.691406 4.109375 -0.5625 4.296875 -0.5 C 4.492188 -0.4375 4.804688 -0.40625 5.234375 -0.40625 L 6.515625 -0.40625 C 7.242188 -0.40625 7.800781 -0.503906 8.1875 -0.703125 C 8.570312 -0.910156 8.847656 -1.242188 9.015625 -1.703125 C 9.191406 -2.160156 9.320312 -2.828125 9.40625 -3.703125 L 9.8125 -3.703125 C 9.78125 -3.335938 9.765625 -2.851562 9.765625 -2.25 C 9.765625 -1.582031 9.804688 -0.832031 9.890625 0 C 9.085938 -0.03125 7.738281 -0.046875 5.84375 -0.046875 C 3.59375 -0.046875 1.890625 -0.03125 0.734375 0 L 0.734375 -0.359375 C 1.160156 -0.378906 1.46875 -0.421875 1.65625 -0.484375 C 1.851562 -0.554688 1.988281 -0.691406 2.0625 -0.890625 C 2.132812 -1.097656 2.171875 -1.425781 2.171875 -1.875 L 2.171875 -10.609375 C 2.171875 -11.054688 2.132812 -11.378906 2.0625 -11.578125 C 1.988281 -11.773438 1.851562 -11.910156 1.65625 -11.984375 C 1.46875 -12.054688 1.160156 -12.101562 0.734375 -12.125 L 0.734375 -12.484375 C 1.234375 -12.441406 1.988281 -12.421875 3 -12.421875 C 3.9375 -12.421875 4.679688 -12.441406 5.234375 -12.484375 Z M 5.234375 -12.125 "/></g></g></g><g fill="#6d6e71" fill-opacity="1"><g transform="translate(142.29208, 184.382726)"><g><path d="M 9.765625 -2.25 C 9.765625 -1.582031 9.804688 -0.832031 9.890625 0 C 9.085938 -0.03125 7.738281 -0.046875 5.84375 -0.046875 C 3.59375 -0.046875 1.890625 -0.03125 0.734375 0 L 0.734375 -0.359375 C 1.160156 -0.378906 1.46875 -0.421875 1.65625 -0.484375 C 1.851562 -0.554688 1.988281 -0.691406 2.0625 -0.890625 C 2.132812 -1.097656 2.171875 -1.425781 2.171875 -1.875 L 2.171875 -10.609375 C 2.171875 -11.054688 2.132812 -11.378906 2.0625 -11.578125 C 1.988281 -11.773438 1.851562 -11.910156 1.65625 -11.984375 C 1.46875 -12.054688 1.160156 -12.101562 0.734375 -12.125 L 0.734375 -12.484375 C 1.890625 -12.441406 3.59375 -12.421875 5.84375 -12.421875 C 7.570312 -12.421875 8.800781 -12.441406 9.53125 -12.484375 C 9.445312 -11.703125 9.40625 -11.007812 9.40625 -10.40625 C 9.40625 -9.945312 9.425781 -9.582031 9.46875 -9.3125 L 9.0625 -9.3125 C 8.976562 -10.070312 8.867188 -10.632812 8.734375 -11 C 8.609375 -11.375 8.390625 -11.644531 8.078125 -11.8125 C 7.773438 -11.988281 7.316406 -12.078125 6.703125 -12.078125 L 5.234375 -12.078125 C 4.804688 -12.078125 4.492188 -12.039062 4.296875 -11.96875 C 4.109375 -11.90625 3.976562 -11.773438 3.90625 -11.578125 C 3.84375 -11.378906 3.8125 -11.054688 3.8125 -10.609375 L 3.8125 -6.453125 L 4.96875 -6.453125 C 5.382812 -6.453125 5.703125 -6.546875 5.921875 -6.734375 C 6.140625 -6.929688 6.285156 -7.160156 6.359375 -7.421875 C 6.441406 -7.691406 6.507812 -8.023438 6.5625 -8.421875 L 6.609375 -8.78125 L 7.015625 -8.78125 C 6.984375 -8.28125 6.96875 -7.726562 6.96875 -7.125 L 6.96875 -6.28125 C 6.96875 -5.675781 7 -4.835938 7.0625 -3.765625 L 6.65625 -3.765625 C 6.644531 -3.847656 6.609375 -4.132812 6.546875 -4.625 C 6.492188 -5.113281 6.332031 -5.476562 6.0625 -5.71875 C 5.800781 -5.96875 5.4375 -6.09375 4.96875 -6.09375 L 3.8125 -6.09375 L 3.8125 -1.875 C 3.8125 -1.425781 3.84375 -1.097656 3.90625 -0.890625 C 3.976562 -0.691406 4.109375 -0.5625 4.296875 -0.5 C 4.492188 -0.4375 4.804688 -0.40625 5.234375 -0.40625 L 6.515625 -0.40625 C 7.242188 -0.40625 7.800781 -0.5 8.1875 -0.6875 C 8.570312 -0.882812 8.847656 -1.195312 9.015625 -1.625 C 9.191406 -2.0625 9.320312 -2.695312 9.40625 -3.53125 L 9.8125 -3.53125 C 9.78125 -3.207031 9.765625 -2.78125 9.765625 -2.25 Z M 9.765625 -2.25 "/></g></g></g><g fill="#6d6e71" fill-opacity="1"><g transform="translate(154.780685, 184.382726)"><g><path d="M 6.53125 -12.71875 C 7.238281 -12.71875 7.835938 -12.617188 8.328125 -12.421875 C 8.828125 -12.222656 9.3125 -11.941406 9.78125 -11.578125 C 9.90625 -11.472656 10.015625 -11.421875 10.109375 -11.421875 C 10.347656 -11.421875 10.503906 -11.773438 10.578125 -12.484375 L 10.984375 -12.484375 C 10.929688 -11.710938 10.90625 -10.359375 10.90625 -8.421875 L 10.5 -8.421875 C 10.375 -9.191406 10.257812 -9.742188 10.15625 -10.078125 C 10.050781 -10.410156 9.875 -10.726562 9.625 -11.03125 C 9.269531 -11.488281 8.816406 -11.832031 8.265625 -12.0625 C 7.722656 -12.289062 7.132812 -12.40625 6.5 -12.40625 C 5.738281 -12.40625 5.070312 -12.148438 4.5 -11.640625 C 3.925781 -11.140625 3.484375 -10.421875 3.171875 -9.484375 C 2.859375 -8.554688 2.703125 -7.460938 2.703125 -6.203125 C 2.703125 -4.921875 2.867188 -3.820312 3.203125 -2.90625 C 3.546875 -1.988281 4.019531 -1.289062 4.625 -0.8125 C 5.226562 -0.34375 5.914062 -0.109375 6.6875 -0.109375 C 7.269531 -0.109375 7.835938 -0.21875 8.390625 -0.4375 C 8.941406 -0.664062 9.375 -1 9.6875 -1.4375 C 9.925781 -1.769531 10.097656 -2.125 10.203125 -2.5 C 10.304688 -2.875 10.40625 -3.453125 10.5 -4.234375 L 10.90625 -4.234375 C 10.90625 -2.210938 10.929688 -0.800781 10.984375 0 L 10.578125 0 C 10.535156 -0.375 10.484375 -0.640625 10.421875 -0.796875 C 10.359375 -0.960938 10.269531 -1.046875 10.15625 -1.046875 C 10.0625 -1.046875 9.9375 -1 9.78125 -0.90625 C 9.25 -0.519531 8.742188 -0.226562 8.265625 -0.03125 C 7.785156 0.15625 7.203125 0.25 6.515625 0.25 C 5.398438 0.25 4.421875 0 3.578125 -0.5 C 2.742188 -1.007812 2.09375 -1.742188 1.625 -2.703125 C 1.164062 -3.660156 0.9375 -4.804688 0.9375 -6.140625 C 0.9375 -7.429688 1.171875 -8.570312 1.640625 -9.5625 C 2.117188 -10.5625 2.785156 -11.335938 3.640625 -11.890625 C 4.492188 -12.441406 5.457031 -12.71875 6.53125 -12.71875 Z M 6.53125 -12.71875 "/></g></g></g><g fill="#6d6e71" fill-opacity="1"><g transform="translate(168.660742, 184.382726)"><g><path d="M 10.4375 -12.484375 C 10.351562 -11.648438 10.3125 -10.894531 10.3125 -10.21875 C 10.3125 -9.632812 10.328125 -9.15625 10.359375 -8.78125 L 9.953125 -8.78125 C 9.859375 -9.6875 9.738281 -10.359375 9.59375 -10.796875 C 9.457031 -11.234375 9.210938 -11.554688 8.859375 -11.765625 C 8.515625 -11.972656 7.976562 -12.078125 7.25 -12.078125 L 6.296875 -12.078125 L 6.296875 -2.046875 C 6.296875 -1.546875 6.34375 -1.1875 6.4375 -0.96875 C 6.53125 -0.75 6.691406 -0.597656 6.921875 -0.515625 C 7.160156 -0.429688 7.546875 -0.378906 8.078125 -0.359375 L 8.078125 0 C 7.460938 -0.03125 6.597656 -0.046875 5.484375 -0.046875 C 4.304688 -0.046875 3.4375 -0.03125 2.875 0 L 2.875 -0.359375 C 3.40625 -0.378906 3.785156 -0.429688 4.015625 -0.515625 C 4.253906 -0.597656 4.421875 -0.75 4.515625 -0.96875 C 4.609375 -1.1875 4.65625 -1.546875 4.65625 -2.046875 L 4.65625 -12.078125 L 3.703125 -12.078125 C 2.972656 -12.078125 2.429688 -11.972656 2.078125 -11.765625 C 1.722656 -11.554688 1.472656 -11.234375 1.328125 -10.796875 C 1.191406 -10.359375 1.078125 -9.6875 0.984375 -8.78125 L 0.578125 -8.78125 C 0.617188 -9.15625 0.640625 -9.632812 0.640625 -10.21875 C 0.640625 -10.894531 0.597656 -11.648438 0.515625 -12.484375 C 1.484375 -12.441406 3.140625 -12.421875 5.484375 -12.421875 C 7.804688 -12.421875 9.457031 -12.441406 10.4375 -12.484375 Z M 10.4375 -12.484375 "/></g></g></g><g fill="#6d6e71" fill-opacity="1"><g transform="translate(181.360708, 184.382726)"><g><path d="M 5.234375 -12.125 C 4.804688 -12.101562 4.492188 -12.054688 4.296875 -11.984375 C 4.109375 -11.910156 3.976562 -11.773438 3.90625 -11.578125 C 3.84375 -11.378906 3.8125 -11.054688 3.8125 -10.609375 L 3.8125 -1.875 C 3.8125 -1.425781 3.84375 -1.097656 3.90625 -0.890625 C 3.976562 -0.691406 4.109375 -0.554688 4.296875 -0.484375 C 4.492188 -0.421875 4.804688 -0.378906 5.234375 -0.359375 L 5.234375 0 C 4.691406 -0.03125 3.945312 -0.046875 3 -0.046875 C 1.988281 -0.046875 1.234375 -0.03125 0.734375 0 L 0.734375 -0.359375 C 1.160156 -0.378906 1.46875 -0.421875 1.65625 -0.484375 C 1.851562 -0.554688 1.988281 -0.691406 2.0625 -0.890625 C 2.132812 -1.097656 2.171875 -1.425781 2.171875 -1.875 L 2.171875 -10.609375 C 2.171875 -11.054688 2.132812 -11.378906 2.0625 -11.578125 C 1.988281 -11.773438 1.851562 -11.910156 1.65625 -11.984375 C 1.46875 -12.054688 1.160156 -12.101562 0.734375 -12.125 L 0.734375 -12.484375 C 1.234375 -12.441406 1.988281 -12.421875 3 -12.421875 C 3.9375 -12.421875 4.679688 -12.441406 5.234375 -12.484375 Z M 5.234375 -12.125 "/></g></g></g><g fill="#6d6e71" fill-opacity="1"><g transform="translate(189.093698, 184.382726)"><g><path d="M 6.59375 -6.59375 C 7.882812 -6.414062 8.804688 -6.039062 9.359375 -5.46875 C 9.910156 -4.90625 10.1875 -4.222656 10.1875 -3.421875 C 10.1875 -2.753906 10.015625 -2.160156 9.671875 -1.640625 C 9.335938 -1.117188 8.851562 -0.710938 8.21875 -0.421875 C 7.582031 -0.140625 6.828125 0 5.953125 0 C 5.640625 0 5.367188 -0.00390625 5.140625 -0.015625 C 4.390625 -0.0351562 3.648438 -0.046875 2.921875 -0.046875 C 1.960938 -0.046875 1.234375 -0.03125 0.734375 0 L 0.734375 -0.359375 C 1.160156 -0.378906 1.46875 -0.421875 1.65625 -0.484375 C 1.851562 -0.554688 1.988281 -0.691406 2.0625 -0.890625 C 2.132812 -1.097656 2.171875 -1.425781 2.171875 -1.875 L 2.171875 -10.609375 C 2.171875 -11.054688 2.132812 -11.378906 2.0625 -11.578125 C 1.988281 -11.773438 1.851562 -11.910156 1.65625 -11.984375 C 1.46875 -12.054688 1.160156 -12.101562 0.734375 -12.125 L 0.734375 -12.484375 C 1.234375 -12.441406 1.953125 -12.421875 2.890625 -12.421875 L 4.796875 -12.4375 C 5.015625 -12.457031 5.265625 -12.46875 5.546875 -12.46875 C 6.742188 -12.46875 7.660156 -12.210938 8.296875 -11.703125 C 8.941406 -11.191406 9.265625 -10.519531 9.265625 -9.6875 C 9.265625 -9.007812 9.050781 -8.398438 8.625 -7.859375 C 8.195312 -7.316406 7.519531 -6.90625 6.59375 -6.625 Z M 5.109375 -12.125 C 4.742188 -12.125 4.46875 -12.082031 4.28125 -12 C 4.101562 -11.914062 3.976562 -11.769531 3.90625 -11.5625 C 3.84375 -11.351562 3.8125 -11.035156 3.8125 -10.609375 L 3.8125 -6.625 L 4.984375 -6.625 C 5.953125 -6.625 6.625 -6.882812 7 -7.40625 C 7.382812 -7.9375 7.578125 -8.632812 7.578125 -9.5 C 7.578125 -10.382812 7.382812 -11.039062 7 -11.46875 C 6.613281 -11.90625 5.984375 -12.125 5.109375 -12.125 Z M 5.125 -0.40625 C 7.320312 -0.40625 8.421875 -1.429688 8.421875 -3.484375 C 8.421875 -4.410156 8.171875 -5.113281 7.671875 -5.59375 C 7.171875 -6.082031 6.375 -6.328125 5.28125 -6.328125 L 3.8125 -6.328125 L 3.8125 -1.875 C 3.8125 -1.445312 3.84375 -1.132812 3.90625 -0.9375 C 3.976562 -0.738281 4.101562 -0.597656 4.28125 -0.515625 C 4.46875 -0.441406 4.75 -0.40625 5.125 -0.40625 Z M 5.125 -0.40625 "/></g></g></g><g fill="#6d6e71" fill-opacity="1"><g transform="translate(201.828888, 184.382726)"><g><path d="M 5.234375 -12.125 C 4.804688 -12.101562 4.492188 -12.054688 4.296875 -11.984375 C 4.109375 -11.910156 3.976562 -11.773438 3.90625 -11.578125 C 3.84375 -11.378906 3.8125 -11.054688 3.8125 -10.609375 L 3.8125 -1.875 C 3.8125 -1.425781 3.84375 -1.097656 3.90625 -0.890625 C 3.976562 -0.691406 4.109375 -0.5625 4.296875 -0.5 C 4.492188 -0.4375 4.804688 -0.40625 5.234375 -0.40625 L 6.515625 -0.40625 C 7.242188 -0.40625 7.800781 -0.503906 8.1875 -0.703125 C 8.570312 -0.910156 8.847656 -1.242188 9.015625 -1.703125 C 9.191406 -2.160156 9.320312 -2.828125 9.40625 -3.703125 L 9.8125 -3.703125 C 9.78125 -3.335938 9.765625 -2.851562 9.765625 -2.25 C 9.765625 -1.582031 9.804688 -0.832031 9.890625 0 C 9.085938 -0.03125 7.738281 -0.046875 5.84375 -0.046875 C 3.59375 -0.046875 1.890625 -0.03125 0.734375 0 L 0.734375 -0.359375 C 1.160156 -0.378906 1.46875 -0.421875 1.65625 -0.484375 C 1.851562 -0.554688 1.988281 -0.691406 2.0625 -0.890625 C 2.132812 -1.097656 2.171875 -1.425781 2.171875 -1.875 L 2.171875 -10.609375 C 2.171875 -11.054688 2.132812 -11.378906 2.0625 -11.578125 C 1.988281 -11.773438 1.851562 -11.910156 1.65625 -11.984375 C 1.46875 -12.054688 1.160156 -12.101562 0.734375 -12.125 L 0.734375 -12.484375 C 1.234375 -12.441406 1.988281 -12.421875 3 -12.421875 C 3.9375 -12.421875 4.679688 -12.441406 5.234375 -12.484375 Z M 5.234375 -12.125 "/></g></g></g><g fill="#6d6e71" fill-opacity="1"><g transform="translate(213.947608, 184.382726)"><g><path d="M 9.765625 -2.25 C 9.765625 -1.582031 9.804688 -0.832031 9.890625 0 C 9.085938 -0.03125 7.738281 -0.046875 5.84375 -0.046875 C 3.59375 -0.046875 1.890625 -0.03125 0.734375 0 L 0.734375 -0.359375 C 1.160156 -0.378906 1.46875 -0.421875 1.65625 -0.484375 C 1.851562 -0.554688 1.988281 -0.691406 2.0625 -0.890625 C 2.132812 -1.097656 2.171875 -1.425781 2.171875 -1.875 L 2.171875 -10.609375 C 2.171875 -11.054688 2.132812 -11.378906 2.0625 -11.578125 C 1.988281 -11.773438 1.851562 -11.910156 1.65625 -11.984375 C 1.46875 -12.054688 1.160156 -12.101562 0.734375 -12.125 L 0.734375 -12.484375 C 1.890625 -12.441406 3.59375 -12.421875 5.84375 -12.421875 C 7.570312 -12.421875 8.800781 -12.441406 9.53125 -12.484375 C 9.445312 -11.703125 9.40625 -11.007812 9.40625 -10.40625 C 9.40625 -9.945312 9.425781 -9.582031 9.46875 -9.3125 L 9.0625 -9.3125 C 8.976562 -10.070312 8.867188 -10.632812 8.734375 -11 C 8.609375 -11.375 8.390625 -11.644531 8.078125 -11.8125 C 7.773438 -11.988281 7.316406 -12.078125 6.703125 -12.078125 L 5.234375 -12.078125 C 4.804688 -12.078125 4.492188 -12.039062 4.296875 -11.96875 C 4.109375 -11.90625 3.976562 -11.773438 3.90625 -11.578125 C 3.84375 -11.378906 3.8125 -11.054688 3.8125 -10.609375 L 3.8125 -6.453125 L 4.96875 -6.453125 C 5.382812 -6.453125 5.703125 -6.546875 5.921875 -6.734375 C 6.140625 -6.929688 6.285156 -7.160156 6.359375 -7.421875 C 6.441406 -7.691406 6.507812 -8.023438 6.5625 -8.421875 L 6.609375 -8.78125 L 7.015625 -8.78125 C 6.984375 -8.28125 6.96875 -7.726562 6.96875 -7.125 L 6.96875 -6.28125 C 6.96875 -5.675781 7 -4.835938 7.0625 -3.765625 L 6.65625 -3.765625 C 6.644531 -3.847656 6.609375 -4.132812 6.546875 -4.625 C 6.492188 -5.113281 6.332031 -5.476562 6.0625 -5.71875 C 5.800781 -5.96875 5.4375 -6.09375 4.96875 -6.09375 L 3.8125 -6.09375 L 3.8125 -1.875 C 3.8125 -1.425781 3.84375 -1.097656 3.90625 -0.890625 C 3.976562 -0.691406 4.109375 -0.5625 4.296875 -0.5 C 4.492188 -0.4375 4.804688 -0.40625 5.234375 -0.40625 L 6.515625 -0.40625 C 7.242188 -0.40625 7.800781 -0.5 8.1875 -0.6875 C 8.570312 -0.882812 8.847656 -1.195312 9.015625 -1.625 C 9.191406 -2.0625 9.320312 -2.695312 9.40625 -3.53125 L 9.8125 -3.53125 C 9.78125 -3.207031 9.765625 -2.78125 9.765625 -2.25 Z M 9.765625 -2.25 "/></g></g></g><g fill="#6d6e71" fill-opacity="1"><g transform="translate(226.436213, 184.382726)"><g><path d="M 4.515625 -12.671875 C 5.023438 -12.671875 5.429688 -12.613281 5.734375 -12.5 C 6.035156 -12.394531 6.34375 -12.234375 6.65625 -12.015625 C 6.914062 -11.859375 7.117188 -11.78125 7.265625 -11.78125 C 7.367188 -11.78125 7.445312 -11.835938 7.5 -11.953125 C 7.5625 -12.078125 7.613281 -12.273438 7.65625 -12.546875 L 8.046875 -12.546875 C 7.992188 -11.867188 7.96875 -10.671875 7.96875 -8.953125 L 7.5625 -8.953125 C 7.488281 -9.898438 7.210938 -10.703125 6.734375 -11.359375 C 6.265625 -12.015625 5.578125 -12.34375 4.671875 -12.34375 C 4.035156 -12.34375 3.515625 -12.148438 3.109375 -11.765625 C 2.710938 -11.378906 2.515625 -10.890625 2.515625 -10.296875 C 2.515625 -9.847656 2.617188 -9.457031 2.828125 -9.125 C 3.035156 -8.800781 3.296875 -8.519531 3.609375 -8.28125 C 3.929688 -8.050781 4.382812 -7.753906 4.96875 -7.390625 L 5.484375 -7.0625 C 6.222656 -6.601562 6.804688 -6.203125 7.234375 -5.859375 C 7.660156 -5.515625 8.003906 -5.117188 8.265625 -4.671875 C 8.523438 -4.222656 8.65625 -3.703125 8.65625 -3.109375 C 8.65625 -2.035156 8.300781 -1.207031 7.59375 -0.625 C 6.882812 -0.0390625 5.992188 0.25 4.921875 0.25 C 4.359375 0.25 3.894531 0.1875 3.53125 0.0625 C 3.175781 -0.0507812 2.832031 -0.207031 2.5 -0.40625 C 2.238281 -0.570312 2.039062 -0.65625 1.90625 -0.65625 C 1.800781 -0.65625 1.71875 -0.59375 1.65625 -0.46875 C 1.59375 -0.34375 1.546875 -0.144531 1.515625 0.125 L 1.109375 0.125 C 1.160156 -0.519531 1.1875 -1.929688 1.1875 -4.109375 L 1.59375 -4.109375 C 1.664062 -2.921875 1.953125 -1.957031 2.453125 -1.21875 C 2.960938 -0.476562 3.742188 -0.109375 4.796875 -0.109375 C 5.429688 -0.109375 5.96875 -0.300781 6.40625 -0.6875 C 6.851562 -1.082031 7.078125 -1.671875 7.078125 -2.453125 C 7.078125 -3.109375 6.859375 -3.664062 6.421875 -4.125 C 5.984375 -4.582031 5.285156 -5.097656 4.328125 -5.671875 C 3.640625 -6.097656 3.082031 -6.472656 2.65625 -6.796875 C 2.226562 -7.128906 1.878906 -7.523438 1.609375 -7.984375 C 1.335938 -8.453125 1.203125 -9 1.203125 -9.625 C 1.203125 -10.613281 1.519531 -11.367188 2.15625 -11.890625 C 2.789062 -12.410156 3.578125 -12.671875 4.515625 -12.671875 Z M 4.515625 -12.671875 "/></g></g></g><g fill="#6d6e71" fill-opacity="1"><g transform="translate(237.709489, 184.382726)"><g/></g></g><g fill="#6d6e71" fill-opacity="1"><g transform="translate(243.857278, 184.382726)"><g><path d="M 10 -1.484375 C 10.28125 -0.753906 10.679688 -0.378906 11.203125 -0.359375 L 11.203125 0 C 10.734375 -0.03125 10.109375 -0.046875 9.328125 -0.046875 C 8.316406 -0.046875 7.5625 -0.03125 7.0625 0 L 7.0625 -0.359375 C 7.507812 -0.378906 7.828125 -0.429688 8.015625 -0.515625 C 8.210938 -0.609375 8.3125 -0.769531 8.3125 -1 C 8.3125 -1.195312 8.242188 -1.472656 8.109375 -1.828125 L 7.03125 -4.71875 L 2.765625 -4.71875 L 2.046875 -2.859375 C 1.804688 -2.222656 1.6875 -1.738281 1.6875 -1.40625 C 1.6875 -1.039062 1.8125 -0.773438 2.0625 -0.609375 C 2.320312 -0.453125 2.707031 -0.367188 3.21875 -0.359375 L 3.21875 0 C 2.550781 -0.03125 1.878906 -0.046875 1.203125 -0.046875 C 0.671875 -0.046875 0.226562 -0.03125 -0.125 0 L -0.125 -0.359375 C 0.46875 -0.492188 0.929688 -1.003906 1.265625 -1.890625 L 5.40625 -12.5625 L 5.6875 -12.5625 Z M 6.890625 -5.078125 L 4.921875 -10.34375 L 2.90625 -5.078125 Z M 6.890625 -5.078125 "/></g></g></g><g fill="#6d6e71" fill-opacity="1"><g transform="translate(256.715744, 184.382726)"><g><path d="M 11.546875 -12.125 C 11.128906 -12.101562 10.820312 -12.039062 10.625 -11.9375 C 10.425781 -11.84375 10.289062 -11.679688 10.21875 -11.453125 C 10.144531 -11.222656 10.109375 -10.882812 10.109375 -10.4375 L 10.109375 -5.125 C 10.109375 -4.28125 10.050781 -3.554688 9.9375 -2.953125 C 9.832031 -2.347656 9.648438 -1.828125 9.390625 -1.390625 C 9.097656 -0.890625 8.664062 -0.488281 8.09375 -0.1875 C 7.53125 0.101562 6.890625 0.25 6.171875 0.25 C 4.878906 0.25 3.890625 -0.0664062 3.203125 -0.703125 C 2.691406 -1.179688 2.347656 -1.726562 2.171875 -2.34375 C 1.992188 -2.957031 1.90625 -3.867188 1.90625 -5.078125 L 1.90625 -10.609375 C 1.90625 -11.054688 1.867188 -11.378906 1.796875 -11.578125 C 1.722656 -11.773438 1.585938 -11.910156 1.390625 -11.984375 C 1.203125 -12.054688 0.894531 -12.101562 0.46875 -12.125 L 0.46875 -12.484375 C 0.96875 -12.441406 1.722656 -12.421875 2.734375 -12.421875 C 3.679688 -12.421875 4.425781 -12.441406 4.96875 -12.484375 L 4.96875 -12.125 C 4.539062 -12.101562 4.226562 -12.054688 4.03125 -11.984375 C 3.84375 -11.910156 3.710938 -11.773438 3.640625 -11.578125 C 3.578125 -11.378906 3.546875 -11.054688 3.546875 -10.609375 L 3.546875 -4.78125 C 3.546875 -3.832031 3.609375 -3.046875 3.734375 -2.421875 C 3.867188 -1.804688 4.132812 -1.3125 4.53125 -0.9375 C 4.9375 -0.5625 5.535156 -0.375 6.328125 -0.375 C 7.578125 -0.375 8.453125 -0.769531 8.953125 -1.5625 C 9.460938 -2.363281 9.71875 -3.488281 9.71875 -4.9375 L 9.71875 -10.4375 C 9.71875 -11.070312 9.601562 -11.503906 9.375 -11.734375 C 9.144531 -11.972656 8.722656 -12.101562 8.109375 -12.125 L 8.109375 -12.484375 C 8.523438 -12.441406 9.125 -12.421875 9.90625 -12.421875 C 10.613281 -12.421875 11.160156 -12.441406 11.546875 -12.484375 Z M 11.546875 -12.125 "/></g></g></g><g fill="#6d6e71" fill-opacity="1"><g transform="translate(270.490104, 184.382726)"><g><path d="M 6.53125 -12.71875 C 7.238281 -12.71875 7.835938 -12.617188 8.328125 -12.421875 C 8.828125 -12.222656 9.3125 -11.941406 9.78125 -11.578125 C 9.90625 -11.472656 10.015625 -11.421875 10.109375 -11.421875 C 10.347656 -11.421875 10.503906 -11.773438 10.578125 -12.484375 L 10.984375 -12.484375 C 10.929688 -11.710938 10.90625 -10.359375 10.90625 -8.421875 L 10.5 -8.421875 C 10.375 -9.191406 10.257812 -9.742188 10.15625 -10.078125 C 10.050781 -10.410156 9.875 -10.726562 9.625 -11.03125 C 9.269531 -11.488281 8.816406 -11.832031 8.265625 -12.0625 C 7.722656 -12.289062 7.132812 -12.40625 6.5 -12.40625 C 5.738281 -12.40625 5.070312 -12.148438 4.5 -11.640625 C 3.925781 -11.140625 3.484375 -10.421875 3.171875 -9.484375 C 2.859375 -8.554688 2.703125 -7.460938 2.703125 -6.203125 C 2.703125 -4.921875 2.867188 -3.820312 3.203125 -2.90625 C 3.546875 -1.988281 4.019531 -1.289062 4.625 -0.8125 C 5.226562 -0.34375 5.914062 -0.109375 6.6875 -0.109375 C 7.269531 -0.109375 7.835938 -0.21875 8.390625 -0.4375 C 8.941406 -0.664062 9.375 -1 9.6875 -1.4375 C 9.925781 -1.769531 10.097656 -2.125 10.203125 -2.5 C 10.304688 -2.875 10.40625 -3.453125 10.5 -4.234375 L 10.90625 -4.234375 C 10.90625 -2.210938 10.929688 -0.800781 10.984375 0 L 10.578125 0 C 10.535156 -0.375 10.484375 -0.640625 10.421875 -0.796875 C 10.359375 -0.960938 10.269531 -1.046875 10.15625 -1.046875 C 10.0625 -1.046875 9.9375 -1 9.78125 -0.90625 C 9.25 -0.519531 8.742188 -0.226562 8.265625 -0.03125 C 7.785156 0.15625 7.203125 0.25 6.515625 0.25 C 5.398438 0.25 4.421875 0 3.578125 -0.5 C 2.742188 -1.007812 2.09375 -1.742188 1.625 -2.703125 C 1.164062 -3.660156 0.9375 -4.804688 0.9375 -6.140625 C 0.9375 -7.429688 1.171875 -8.570312 1.640625 -9.5625 C 2.117188 -10.5625 2.785156 -11.335938 3.640625 -11.890625 C 4.492188 -12.441406 5.457031 -12.71875 6.53125 -12.71875 Z M 6.53125 -12.71875 "/></g></g></g><g fill="#6d6e71" fill-opacity="1"><g transform="translate(284.370161, 184.382726)"><g><path d="M 10.4375 -12.484375 C 10.351562 -11.648438 10.3125 -10.894531 10.3125 -10.21875 C 10.3125 -9.632812 10.328125 -9.15625 10.359375 -8.78125 L 9.953125 -8.78125 C 9.859375 -9.6875 9.738281 -10.359375 9.59375 -10.796875 C 9.457031 -11.234375 9.210938 -11.554688 8.859375 -11.765625 C 8.515625 -11.972656 7.976562 -12.078125 7.25 -12.078125 L 6.296875 -12.078125 L 6.296875 -2.046875 C 6.296875 -1.546875 6.34375 -1.1875 6.4375 -0.96875 C 6.53125 -0.75 6.691406 -0.597656 6.921875 -0.515625 C 7.160156 -0.429688 7.546875 -0.378906 8.078125 -0.359375 L 8.078125 0 C 7.460938 -0.03125 6.597656 -0.046875 5.484375 -0.046875 C 4.304688 -0.046875 3.4375 -0.03125 2.875 0 L 2.875 -0.359375 C 3.40625 -0.378906 3.785156 -0.429688 4.015625 -0.515625 C 4.253906 -0.597656 4.421875 -0.75 4.515625 -0.96875 C 4.609375 -1.1875 4.65625 -1.546875 4.65625 -2.046875 L 4.65625 -12.078125 L 3.703125 -12.078125 C 2.972656 -12.078125 2.429688 -11.972656 2.078125 -11.765625 C 1.722656 -11.554688 1.472656 -11.234375 1.328125 -10.796875 C 1.191406 -10.359375 1.078125 -9.6875 0.984375 -8.78125 L 0.578125 -8.78125 C 0.617188 -9.15625 0.640625 -9.632812 0.640625 -10.21875 C 0.640625 -10.894531 0.597656 -11.648438 0.515625 -12.484375 C 1.484375 -12.441406 3.140625 -12.421875 5.484375 -12.421875 C 7.804688 -12.421875 9.457031 -12.441406 10.4375 -12.484375 Z M 10.4375 -12.484375 "/></g></g></g><g fill="#6d6e71" fill-opacity="1"><g transform="translate(297.070127, 184.382726)"><g><path d="M 5.234375 -12.125 C 4.804688 -12.101562 4.492188 -12.054688 4.296875 -11.984375 C 4.109375 -11.910156 3.976562 -11.773438 3.90625 -11.578125 C 3.84375 -11.378906 3.8125 -11.054688 3.8125 -10.609375 L 3.8125 -1.875 C 3.8125 -1.425781 3.84375 -1.097656 3.90625 -0.890625 C 3.976562 -0.691406 4.109375 -0.554688 4.296875 -0.484375 C 4.492188 -0.421875 4.804688 -0.378906 5.234375 -0.359375 L 5.234375 0 C 4.691406 -0.03125 3.945312 -0.046875 3 -0.046875 C 1.988281 -0.046875 1.234375 -0.03125 0.734375 0 L 0.734375 -0.359375 C 1.160156 -0.378906 1.46875 -0.421875 1.65625 -0.484375 C 1.851562 -0.554688 1.988281 -0.691406 2.0625 -0.890625 C 2.132812 -1.097656 2.171875 -1.425781 2.171875 -1.875 L 2.171875 -10.609375 C 2.171875 -11.054688 2.132812 -11.378906 2.0625 -11.578125 C 1.988281 -11.773438 1.851562 -11.910156 1.65625 -11.984375 C 1.46875 -12.054688 1.160156 -12.101562 0.734375 -12.125 L 0.734375 -12.484375 C 1.234375 -12.441406 1.988281 -12.421875 3 -12.421875 C 3.9375 -12.421875 4.679688 -12.441406 5.234375 -12.484375 Z M 5.234375 -12.125 "/></g></g></g><g fill="#6d6e71" fill-opacity="1"><g transform="translate(304.803105, 184.382726)"><g><path d="M 6.53125 -12.71875 C 7.65625 -12.71875 8.632812 -12.460938 9.46875 -11.953125 C 10.3125 -11.453125 10.960938 -10.722656 11.421875 -9.765625 C 11.890625 -8.816406 12.125 -7.675781 12.125 -6.34375 C 12.125 -5.050781 11.882812 -3.90625 11.40625 -2.90625 C 10.9375 -1.90625 10.273438 -1.128906 9.421875 -0.578125 C 8.566406 -0.0234375 7.597656 0.25 6.515625 0.25 C 5.398438 0.25 4.421875 0 3.578125 -0.5 C 2.742188 -1.007812 2.09375 -1.742188 1.625 -2.703125 C 1.164062 -3.660156 0.9375 -4.804688 0.9375 -6.140625 C 0.9375 -7.429688 1.171875 -8.570312 1.640625 -9.5625 C 2.117188 -10.5625 2.785156 -11.335938 3.640625 -11.890625 C 4.492188 -12.441406 5.457031 -12.71875 6.53125 -12.71875 Z M 6.46875 -12.40625 C 5.71875 -12.40625 5.054688 -12.144531 4.484375 -11.625 C 3.910156 -11.101562 3.46875 -10.367188 3.15625 -9.421875 C 2.851562 -8.484375 2.703125 -7.410156 2.703125 -6.203125 C 2.703125 -4.984375 2.875 -3.910156 3.21875 -2.984375 C 3.5625 -2.054688 4.023438 -1.335938 4.609375 -0.828125 C 5.203125 -0.328125 5.863281 -0.078125 6.59375 -0.078125 C 7.34375 -0.078125 8 -0.335938 8.5625 -0.859375 C 9.132812 -1.378906 9.578125 -2.109375 9.890625 -3.046875 C 10.203125 -3.984375 10.359375 -5.0625 10.359375 -6.28125 C 10.359375 -7.5 10.1875 -8.570312 9.84375 -9.5 C 9.5 -10.425781 9.03125 -11.140625 8.4375 -11.640625 C 7.851562 -12.148438 7.195312 -12.40625 6.46875 -12.40625 Z M 6.46875 -12.40625 "/></g></g></g><g fill="#6d6e71" fill-opacity="1"><g transform="translate(319.616657, 184.382726)"><g><path d="M 11.8125 -12.125 C 11.394531 -12.101562 11.085938 -12.039062 10.890625 -11.9375 C 10.691406 -11.84375 10.554688 -11.679688 10.484375 -11.453125 C 10.410156 -11.222656 10.375 -10.882812 10.375 -10.4375 L 10.375 0.09375 L 9.96875 0.09375 L 2.578125 -11.34375 L 2.578125 -2.046875 C 2.578125 -1.585938 2.613281 -1.242188 2.6875 -1.015625 C 2.757812 -0.796875 2.90625 -0.632812 3.125 -0.53125 C 3.351562 -0.4375 3.703125 -0.378906 4.171875 -0.359375 L 4.171875 0 C 3.753906 -0.03125 3.15625 -0.046875 2.375 -0.046875 C 1.675781 -0.046875 1.128906 -0.03125 0.734375 0 L 0.734375 -0.359375 C 1.148438 -0.378906 1.457031 -0.4375 1.65625 -0.53125 C 1.851562 -0.632812 1.988281 -0.800781 2.0625 -1.03125 C 2.132812 -1.257812 2.171875 -1.597656 2.171875 -2.046875 L 2.171875 -10.609375 C 2.171875 -11.054688 2.132812 -11.378906 2.0625 -11.578125 C 1.988281 -11.773438 1.851562 -11.910156 1.65625 -11.984375 C 1.46875 -12.054688 1.160156 -12.101562 0.734375 -12.125 L 0.734375 -12.484375 C 1.128906 -12.441406 1.675781 -12.421875 2.375 -12.421875 C 2.90625 -12.421875 3.363281 -12.441406 3.75 -12.484375 L 9.96875 -2.890625 L 9.96875 -10.4375 C 9.96875 -10.894531 9.929688 -11.234375 9.859375 -11.453125 C 9.785156 -11.679688 9.632812 -11.84375 9.40625 -11.9375 C 9.1875 -12.039062 8.84375 -12.101562 8.375 -12.125 L 8.375 -12.484375 C 8.789062 -12.441406 9.390625 -12.421875 10.171875 -12.421875 C 10.878906 -12.421875 11.425781 -12.441406 11.8125 -12.484375 Z M 11.8125 -12.125 "/></g></g></g><g fill="#6d6e71" fill-opacity="1"><g transform="translate(157.531819, 224.547505)"><g><path d="M 6.015625 -2.859375 C 6.015625 -2.429688 5.945312 -2.035156 5.8125 -1.671875 C 5.675781 -1.316406 5.484375 -1.007812 5.234375 -0.75 C 4.984375 -0.5 4.6875 -0.300781 4.34375 -0.15625 C 4 -0.0078125 3.613281 0.0625 3.1875 0.0625 C 2.769531 0.0625 2.390625 -0.0078125 2.046875 -0.15625 C 1.703125 -0.300781 1.40625 -0.5 1.15625 -0.75 C 0.90625 -1.007812 0.710938 -1.316406 0.578125 -1.671875 C 0.441406 -2.035156 0.375 -2.429688 0.375 -2.859375 C 0.375 -3.285156 0.441406 -3.675781 0.578125 -4.03125 C 0.710938 -4.394531 0.90625 -4.707031 1.15625 -4.96875 C 1.40625 -5.226562 1.703125 -5.425781 2.046875 -5.5625 C 2.390625 -5.707031 2.769531 -5.78125 3.1875 -5.78125 C 3.613281 -5.78125 4 -5.707031 4.34375 -5.5625 C 4.6875 -5.425781 4.984375 -5.226562 5.234375 -4.96875 C 5.484375 -4.707031 5.675781 -4.394531 5.8125 -4.03125 C 5.945312 -3.675781 6.015625 -3.285156 6.015625 -2.859375 Z M 5.21875 -2.859375 C 5.21875 -3.210938 5.171875 -3.523438 5.078125 -3.796875 C 4.984375 -4.078125 4.847656 -4.3125 4.671875 -4.5 C 4.492188 -4.695312 4.28125 -4.847656 4.03125 -4.953125 C 3.78125 -5.054688 3.5 -5.109375 3.1875 -5.109375 C 2.882812 -5.109375 2.609375 -5.054688 2.359375 -4.953125 C 2.109375 -4.847656 1.894531 -4.695312 1.71875 -4.5 C 1.539062 -4.3125 1.40625 -4.078125 1.3125 -3.796875 C 1.21875 -3.523438 1.171875 -3.210938 1.171875 -2.859375 C 1.171875 -2.503906 1.21875 -2.1875 1.3125 -1.90625 C 1.40625 -1.632812 1.539062 -1.398438 1.71875 -1.203125 C 1.894531 -1.015625 2.109375 -0.867188 2.359375 -0.765625 C 2.609375 -0.660156 2.882812 -0.609375 3.1875 -0.609375 C 3.5 -0.609375 3.78125 -0.660156 4.03125 -0.765625 C 4.28125 -0.867188 4.492188 -1.015625 4.671875 -1.203125 C 4.847656 -1.398438 4.984375 -1.632812 5.078125 -1.90625 C 5.171875 -2.1875 5.21875 -2.503906 5.21875 -2.859375 Z M 5.21875 -2.859375 "/></g></g></g><g fill="#6d6e71" fill-opacity="1"><g transform="translate(167.119237, 224.547505)"><g><path d="M 3.65625 -4.828125 C 3.632812 -4.785156 3.609375 -4.753906 3.578125 -4.734375 C 3.546875 -4.710938 3.515625 -4.703125 3.484375 -4.703125 C 3.429688 -4.703125 3.375 -4.722656 3.3125 -4.765625 C 3.25 -4.816406 3.171875 -4.867188 3.078125 -4.921875 C 2.992188 -4.972656 2.882812 -5.019531 2.75 -5.0625 C 2.625 -5.113281 2.46875 -5.140625 2.28125 -5.140625 C 2.113281 -5.140625 1.960938 -5.113281 1.828125 -5.0625 C 1.691406 -5.019531 1.578125 -4.957031 1.484375 -4.875 C 1.398438 -4.800781 1.335938 -4.707031 1.296875 -4.59375 C 1.253906 -4.488281 1.234375 -4.375 1.234375 -4.25 C 1.234375 -4.09375 1.269531 -3.960938 1.34375 -3.859375 C 1.425781 -3.753906 1.53125 -3.660156 1.65625 -3.578125 C 1.789062 -3.503906 1.9375 -3.441406 2.09375 -3.390625 C 2.257812 -3.335938 2.425781 -3.28125 2.59375 -3.21875 C 2.769531 -3.164062 2.9375 -3.101562 3.09375 -3.03125 C 3.257812 -2.957031 3.40625 -2.863281 3.53125 -2.75 C 3.664062 -2.632812 3.769531 -2.492188 3.84375 -2.328125 C 3.925781 -2.171875 3.96875 -1.972656 3.96875 -1.734375 C 3.96875 -1.484375 3.925781 -1.25 3.84375 -1.03125 C 3.757812 -0.8125 3.632812 -0.617188 3.46875 -0.453125 C 3.300781 -0.296875 3.097656 -0.171875 2.859375 -0.078125 C 2.628906 0.015625 2.363281 0.0625 2.0625 0.0625 C 1.6875 0.0625 1.347656 -0.00390625 1.046875 -0.140625 C 0.742188 -0.273438 0.484375 -0.457031 0.265625 -0.6875 L 0.484375 -1.046875 C 0.503906 -1.078125 0.53125 -1.101562 0.5625 -1.125 C 0.59375 -1.144531 0.628906 -1.15625 0.671875 -1.15625 C 0.703125 -1.15625 0.738281 -1.140625 0.78125 -1.109375 C 0.820312 -1.078125 0.867188 -1.039062 0.921875 -1 C 0.984375 -0.957031 1.050781 -0.910156 1.125 -0.859375 C 1.195312 -0.816406 1.28125 -0.769531 1.375 -0.71875 C 1.46875 -0.675781 1.570312 -0.640625 1.6875 -0.609375 C 1.800781 -0.585938 1.929688 -0.578125 2.078125 -0.578125 C 2.265625 -0.578125 2.425781 -0.601562 2.5625 -0.65625 C 2.707031 -0.707031 2.828125 -0.773438 2.921875 -0.859375 C 3.023438 -0.953125 3.101562 -1.0625 3.15625 -1.1875 C 3.21875 -1.320312 3.25 -1.46875 3.25 -1.625 C 3.25 -1.800781 3.207031 -1.941406 3.125 -2.046875 C 3.050781 -2.160156 2.945312 -2.253906 2.8125 -2.328125 C 2.6875 -2.398438 2.539062 -2.460938 2.375 -2.515625 C 2.207031 -2.566406 2.039062 -2.617188 1.875 -2.671875 C 1.707031 -2.734375 1.539062 -2.796875 1.375 -2.859375 C 1.207031 -2.929688 1.0625 -3.023438 0.9375 -3.140625 C 0.8125 -3.253906 0.707031 -3.394531 0.625 -3.5625 C 0.539062 -3.738281 0.5 -3.957031 0.5 -4.21875 C 0.5 -4.414062 0.539062 -4.609375 0.625 -4.796875 C 0.707031 -4.984375 0.820312 -5.148438 0.96875 -5.296875 C 1.113281 -5.441406 1.296875 -5.554688 1.515625 -5.640625 C 1.742188 -5.734375 2 -5.78125 2.28125 -5.78125 C 2.601562 -5.78125 2.894531 -5.726562 3.15625 -5.625 C 3.414062 -5.53125 3.644531 -5.382812 3.84375 -5.1875 Z M 3.65625 -4.828125 "/></g></g></g><g fill="#6d6e71" fill-opacity="1"><g transform="translate(174.646212, 224.547505)"><g><path d="M 3.96875 -0.65625 L 3.96875 0 L 0.734375 0 L 0.734375 -5.71875 L 1.5 -5.71875 L 1.5 -0.65625 Z M 3.96875 -0.65625 "/></g></g></g><g fill="#6d6e71" fill-opacity="1"><g transform="translate(181.941594, 224.547505)"><g><path d="M 6.015625 -2.859375 C 6.015625 -2.429688 5.945312 -2.035156 5.8125 -1.671875 C 5.675781 -1.316406 5.484375 -1.007812 5.234375 -0.75 C 4.984375 -0.5 4.6875 -0.300781 4.34375 -0.15625 C 4 -0.0078125 3.613281 0.0625 3.1875 0.0625 C 2.769531 0.0625 2.390625 -0.0078125 2.046875 -0.15625 C 1.703125 -0.300781 1.40625 -0.5 1.15625 -0.75 C 0.90625 -1.007812 0.710938 -1.316406 0.578125 -1.671875 C 0.441406 -2.035156 0.375 -2.429688 0.375 -2.859375 C 0.375 -3.285156 0.441406 -3.675781 0.578125 -4.03125 C 0.710938 -4.394531 0.90625 -4.707031 1.15625 -4.96875 C 1.40625 -5.226562 1.703125 -5.425781 2.046875 -5.5625 C 2.390625 -5.707031 2.769531 -5.78125 3.1875 -5.78125 C 3.613281 -5.78125 4 -5.707031 4.34375 -5.5625 C 4.6875 -5.425781 4.984375 -5.226562 5.234375 -4.96875 C 5.484375 -4.707031 5.675781 -4.394531 5.8125 -4.03125 C 5.945312 -3.675781 6.015625 -3.285156 6.015625 -2.859375 Z M 5.21875 -2.859375 C 5.21875 -3.210938 5.171875 -3.523438 5.078125 -3.796875 C 4.984375 -4.078125 4.847656 -4.3125 4.671875 -4.5 C 4.492188 -4.695312 4.28125 -4.847656 4.03125 -4.953125 C 3.78125 -5.054688 3.5 -5.109375 3.1875 -5.109375 C 2.882812 -5.109375 2.609375 -5.054688 2.359375 -4.953125 C 2.109375 -4.847656 1.894531 -4.695312 1.71875 -4.5 C 1.539062 -4.3125 1.40625 -4.078125 1.3125 -3.796875 C 1.21875 -3.523438 1.171875 -3.210938 1.171875 -2.859375 C 1.171875 -2.503906 1.21875 -2.1875 1.3125 -1.90625 C 1.40625 -1.632812 1.539062 -1.398438 1.71875 -1.203125 C 1.894531 -1.015625 2.109375 -0.867188 2.359375 -0.765625 C 2.609375 -0.660156 2.882812 -0.609375 3.1875 -0.609375 C 3.5 -0.609375 3.78125 -0.660156 4.03125 -0.765625 C 4.28125 -0.867188 4.492188 -1.015625 4.671875 -1.203125 C 4.847656 -1.398438 4.984375 -1.632812 5.078125 -1.90625 C 5.171875 -2.1875 5.21875 -2.503906 5.21875 -2.859375 Z M 5.21875 -2.859375 "/></g></g></g><g fill="#6d6e71" fill-opacity="1"><g transform="translate(191.529011, 224.547505)"><g><path d="M 0.515625 0.96875 C 0.492188 0.945312 0.476562 0.925781 0.46875 0.90625 C 0.46875 0.894531 0.46875 0.878906 0.46875 0.859375 C 0.46875 0.835938 0.472656 0.816406 0.484375 0.796875 C 0.492188 0.773438 0.503906 0.757812 0.515625 0.75 C 0.546875 0.71875 0.582031 0.675781 0.625 0.625 C 0.664062 0.582031 0.707031 0.523438 0.75 0.453125 C 0.789062 0.390625 0.828125 0.316406 0.859375 0.234375 C 0.898438 0.160156 0.929688 0.0820312 0.953125 0 C 0.941406 0 0.929688 0 0.921875 0 C 0.910156 0 0.898438 0 0.890625 0 C 0.753906 0 0.640625 -0.046875 0.546875 -0.140625 C 0.460938 -0.234375 0.421875 -0.347656 0.421875 -0.484375 C 0.421875 -0.609375 0.460938 -0.710938 0.546875 -0.796875 C 0.640625 -0.890625 0.757812 -0.9375 0.90625 -0.9375 C 0.976562 -0.9375 1.046875 -0.921875 1.109375 -0.890625 C 1.171875 -0.867188 1.222656 -0.832031 1.265625 -0.78125 C 1.304688 -0.726562 1.335938 -0.664062 1.359375 -0.59375 C 1.378906 -0.53125 1.390625 -0.457031 1.390625 -0.375 C 1.390625 -0.257812 1.375 -0.132812 1.34375 0 C 1.3125 0.125 1.257812 0.25 1.1875 0.375 C 1.125 0.507812 1.046875 0.632812 0.953125 0.75 C 0.859375 0.875 0.753906 0.984375 0.640625 1.078125 Z M 0.515625 0.96875 "/></g></g></g><g fill="#6d6e71" fill-opacity="1"><g transform="translate(196.536337, 224.547505)"><g/></g></g><g fill="#6d6e71" fill-opacity="1"><g transform="translate(201.775269, 224.547505)"><g><path d="M 5.359375 -5.71875 L 5.359375 0 L 4.984375 0 C 4.921875 0 4.867188 -0.0078125 4.828125 -0.03125 C 4.785156 -0.0507812 4.742188 -0.0859375 4.703125 -0.140625 L 1.390625 -4.453125 C 1.398438 -4.378906 1.40625 -4.3125 1.40625 -4.25 C 1.40625 -4.1875 1.40625 -4.128906 1.40625 -4.078125 L 1.40625 0 L 0.734375 0 L 0.734375 -5.71875 L 1.125 -5.71875 C 1.164062 -5.71875 1.195312 -5.710938 1.21875 -5.703125 C 1.238281 -5.703125 1.257812 -5.695312 1.28125 -5.6875 C 1.300781 -5.6875 1.316406 -5.675781 1.328125 -5.65625 C 1.347656 -5.632812 1.367188 -5.613281 1.390625 -5.59375 L 4.703125 -1.28125 C 4.703125 -1.351562 4.695312 -1.421875 4.6875 -1.484375 C 4.6875 -1.546875 4.6875 -1.609375 4.6875 -1.671875 L 4.6875 -5.71875 Z M 5.359375 -5.71875 "/></g></g></g><g fill="#6d6e71" fill-opacity="1"><g transform="translate(211.067201, 224.547505)"><g><path d="M 6.015625 -2.859375 C 6.015625 -2.429688 5.945312 -2.035156 5.8125 -1.671875 C 5.675781 -1.316406 5.484375 -1.007812 5.234375 -0.75 C 4.984375 -0.5 4.6875 -0.300781 4.34375 -0.15625 C 4 -0.0078125 3.613281 0.0625 3.1875 0.0625 C 2.769531 0.0625 2.390625 -0.0078125 2.046875 -0.15625 C 1.703125 -0.300781 1.40625 -0.5 1.15625 -0.75 C 0.90625 -1.007812 0.710938 -1.316406 0.578125 -1.671875 C 0.441406 -2.035156 0.375 -2.429688 0.375 -2.859375 C 0.375 -3.285156 0.441406 -3.675781 0.578125 -4.03125 C 0.710938 -4.394531 0.90625 -4.707031 1.15625 -4.96875 C 1.40625 -5.226562 1.703125 -5.425781 2.046875 -5.5625 C 2.390625 -5.707031 2.769531 -5.78125 3.1875 -5.78125 C 3.613281 -5.78125 4 -5.707031 4.34375 -5.5625 C 4.6875 -5.425781 4.984375 -5.226562 5.234375 -4.96875 C 5.484375 -4.707031 5.675781 -4.394531 5.8125 -4.03125 C 5.945312 -3.675781 6.015625 -3.285156 6.015625 -2.859375 Z M 5.21875 -2.859375 C 5.21875 -3.210938 5.171875 -3.523438 5.078125 -3.796875 C 4.984375 -4.078125 4.847656 -4.3125 4.671875 -4.5 C 4.492188 -4.695312 4.28125 -4.847656 4.03125 -4.953125 C 3.78125 -5.054688 3.5 -5.109375 3.1875 -5.109375 C 2.882812 -5.109375 2.609375 -5.054688 2.359375 -4.953125 C 2.109375 -4.847656 1.894531 -4.695312 1.71875 -4.5 C 1.539062 -4.3125 1.40625 -4.078125 1.3125 -3.796875 C 1.21875 -3.523438 1.171875 -3.210938 1.171875 -2.859375 C 1.171875 -2.503906 1.21875 -2.1875 1.3125 -1.90625 C 1.40625 -1.632812 1.539062 -1.398438 1.71875 -1.203125 C 1.894531 -1.015625 2.109375 -0.867188 2.359375 -0.765625 C 2.609375 -0.660156 2.882812 -0.609375 3.1875 -0.609375 C 3.5 -0.609375 3.78125 -0.660156 4.03125 -0.765625 C 4.28125 -0.867188 4.492188 -1.015625 4.671875 -1.203125 C 4.847656 -1.398438 4.984375 -1.632812 5.078125 -1.90625 C 5.171875 -2.1875 5.21875 -2.503906 5.21875 -2.859375 Z M 5.21875 -2.859375 "/></g></g></g><path stroke-linecap="round" transform="matrix(0.75, 0, 0, 0.75, 49.626796, 204.81567)" fill="none" stroke-linejoin="miter" d="M 0.497606 0.500982 L 367.164297 0.500982 " stroke="#6d6e71" stroke-width="1" stroke-opacity="1" stroke-miterlimit="4"/><path stroke-linecap="round" transform="matrix(0.75, 0, 0, 0.75, 49.626796, 152.905684)" fill="none" stroke-linejoin="miter" d="M 0.497606 0.500754 L 367.164297 0.500754 " stroke="#6d6e71" stroke-width="1" stroke-opacity="1" stroke-miterlimit="4"/></svg>